# AST/ASF file generated using VICON BodyLanguage
# -----------------------------------------------
:version 1.10
:name VICON
:units
  mass 1.0
  length 0.45
  angle deg
:documentation
   .ast/.asf automatically generated from VICON data using
   VICON BodyBuilder and BodyLanguage model FoxedUp or BRILLIANT.MOD
:root
   order TX TY TZ RX RY RZ
   axis XYZ
   position 0 0 0  
   orientation 0 0 0 
:bonedata
  begin
     id 1 
     name lhipjoint
     direction 0.577973 -0.728611 0.367523 
     length 2.48544 
     axis 0 0 0  XYZ
  end
  begin
     id 2 
     name lfemur
     direction 0.34202 -0.939693 0  
     length 7.1921  
     axis 0 0 20  XYZ
    dof rx ry rz
    limits (-160.0 20.0)
           (-70.0 70.0)
           (-60.0 70.0)
  end
  begin
     id 3 
     name ltibia
     direction 0.34202 -0.939693 0   
     length 7.71059   
     axis 0 0 20   XYZ
    dof rx
    limits (-10.0 170.0)
  end
  begin
     id 4 
     name lfoot
     direction 0.089538 -0.246004 0.965124   
     length 2.19909   
     axis -90 7.62852e-016 20   XYZ
    dof rx rz
    limits (-45.0 90.0)
           (-70.0 20.0)
  end
  begin
     id 5 
     name ltoes
     direction 1.53544e-011 -4.21829e-011 1   
     length 1.10116   
     axis -90 7.62852e-016 20   XYZ
    dof rx
    limits (-90.0 20.0)
  end
  begin
     id 6 
     name rhipjoint
     direction -0.554414 -0.743062 0.374812   
     length 2.4371  
     axis 0 0 0  XYZ 
  end
  begin
     id 7 
     name rfemur
     direction -0.34202 -0.939693 0   
     length 7.47254   
     axis 0 0 -20   XYZ
    dof rx ry rz
    limits (-160.0 20.0)
           (-70.0 70.0)
           (-70.0 60.0)
  end
  begin
     id 8 
     name rtibia
     direction -0.34202 -0.939693 0   
     length 7.65855   
     axis 0 0 -20   XYZ
    dof rx
    limits (-10.0 170.0)
 end
 begin
     id 9 
     name rfoot
     direction -0.133779 -0.367555 0.92033   
     length 2.43006  
     axis -90 -7.62852e-016 -20   XYZ
    dof rx rz
    limits (-45.0 90.0)
           (-20.0 70.0)
  end
  begin
     id 10 
     name rtoes
     direction -1.53563e-011 -4.21889e-011 1   
     length 1.19625   
     axis -90 -7.62852e-016 -20   XYZ
    dof rx
    limits (-90.0 20.0)
  end
  begin
     id 11 
     name lowerback
     direction 0.0249066 0.998043 -0.0573585   
     length 2.08485   
     axis 0 0 0   XYZ
    dof rx ry rz
    limits (-20.0 45.0)
           (-30.0 30.0)
           (-30.0 30.0)
  end
  begin
     id 12 
     name upperback
     direction 0.0237884 0.999673 0.00943178   
     length 2.08515   
     axis 0 0 0   XYZ
    dof rx ry rz
    limits (-20.0 45.0)
           (-30.0 30.0)
           (-30.0 30.0)
  end
  begin
     id 13 
     name thorax
     direction 0.0106671 0.999301 0.0358174   
     length 2.09037   
     axis 0 0 0   XYZ
    dof rx ry rz
    limits (-20.0 45.0)
           (-30.0 30.0)
           (-30.0 30.0)
  end
  begin
     id 14 
     name lowerneck
     direction -0.0580016 0.987052 0.149546   
     length 1.84454   
     axis 0 0 0   XYZ
    dof rx ry rz
    limits (-20.0 45.0)
           (-30.0 30.0)
           (-30.0 30.0)
  end
  begin
     id 15 
     name upperneck
     direction 0.079456 0.981963 -0.171567   
     length 1.88141   
     axis 0 0 0   XYZ
    dof rx ry rz
    limits (-20.0 45.0)
           (-30.0 30.0)
           (-30.0 30.0)
  end
  begin
     id 16
     name head
     direction 0.0262167 0.9967 -0.0768276  
     length 1.89541  
     axis 0 0 0   XYZ
    dof rx ry rz
    limits (-20.0 45.0)
           (-30.0 30.0)
           (-30.0 30.0)
  end
  begin
     id 17 
     name lclavicle
     direction 0.946135 0.322134 -0.0325326  
     length 3.949  
     axis 0 0 0   XYZ
    dof ry rz
    limits (-20.0 10.0)
           (0.0 20.0)
  end
  begin
     id 18 
     name lhumerus
     direction 1 -4.48964e-011 1.94005e-028   
     length 5.10995   
     axis 180 -30 -90   XYZ
    dof rx ry rz
    limits (-60.0 90.0)
           (-90.0 90.0)
           (-90.0 90.0)
  end
  begin
     id 19
     name lradius
     direction 1 -4.48976e-011 2.87852e-027   
     length 3.21207   
     axis 180 -30 -90   XYZ
    dof rx
    limits (-10.0 170.0)
  end
  begin
     id 20
     name lwrist
     direction 1 -4.48963e-011 1.9975e-027   
     length 1.60604   
     axis 2.96054e-016 90 90   XYZ
    dof ry
    limits (-180.0 0.0)
 end
  begin
     id 21 
     name lhand
     direction 1 -4.48919e-011 4.00227e-027   
     length 0.63349   
     axis -2.5488e-015 90 90   XYZ
    dof rx rz
    limits (-90.0 90.0)
           (-45.0 45.0)
  end
  begin
     id 22 
     name lfingers
     direction 1 -4.49037e-011 7.9652e-027   
     length 0.510736   
     axis -5.0975e-015 90 90   XYZ
    dof rx
    limits (0.0 90.0)
  end
  begin
     id 23
     name lthumb
     direction 0.707107 -6.34922e-011 0.707107   
     length 0.733318   
     axis -90 45 -4.48553e-014   XYZ
    dof rx rz
    limits (-45.0 45.0)
           (-45.0 45.0)
  end
  begin
     id 24 
     name rclavicle
     direction -0.940085 0.328911 -0.0897654   
     length 3.93848  
     axis 0 0 0   XYZ 
    dof ry rz
    limits (-10.0 20.0)
           (-20.0 0.0)
  end
  begin
     id 25 
     name rhumerus
     direction -1 -4.48958e-011 3.02044e-027  
     length 5.25109   
     axis 180 30 90   XYZ
    dof rx ry rz
    limits (-90.0 60.0)
           (-90.0 90.0)
           (-90.0 90.0)
  end
  begin
     id 26 
     name rradius
     direction -1 -4.4897e-011 9.78352e-028   
     length 3.28364   
     axis 180 30 90   XYZ
    dof rx
    limits (-10.0 170.0)
  end
  begin
     id 27 
     name rwrist
     direction -1 -4.48943e-011 1.99918e-027   
     length 1.64182   
     axis 2.96054e-016 -90 -90   XYZ
    dof ry
    limits (-180.0 0.0)
  end
  begin
     id 28
     name rhand
     direction -1 -4.49024e-011 3.98478e-027   
     length 0.599745   
     axis -2.5488e-015 -90 -90   XYZ
    dof rx rz
    limits (-90.0 90.0)
           (-45.0 45.0)
  end
  begin
     id 29
     name rfingers
     direction -1 -4.48914e-011 8.00621e-027   
     length 0.48353   
     axis -5.0975e-015 -90 -90   XYZ
    dof rx
    limits (0.0 90.0)
  end
  begin
     id 30
     name rthumb
     direction -0.707107 -6.34992e-011 0.707107   
     length 0.694255   
     axis -90 -45 4.48553e-014   XYZ
    dof rx rz
    limits (-45.0 45.0)
           (-45.0 45.0)
  end
:hierarchy
  begin
    root lhipjoint rhipjoint lowerback
    lhipjoint lfemur
    lfemur ltibia
    ltibia lfoot
    lfoot ltoes
    rhipjoint rfemur
    rfemur rtibia
    rtibia rfoot
    rfoot rtoes
    lowerback upperback
    upperback thorax
    thorax lowerneck lclavicle rclavicle
    lowerneck upperneck
    upperneck head
    lclavicle lhumerus
    lhumerus lradius
    lradius lwrist
    lwrist lhand lthumb
    lhand lfingers
    rclavicle rhumerus
    rhumerus rradius
    rradius rwrist
    rwrist rhand rthumb
    rhand rfingers
  end

#!OML:ASF E:\CV Data\Top Level 1\Subject 1\Session 1\player.ASF
:FULLY-SPECIFIED
:DEGREES
91
root 1.77762 17.7627 -24.3716 5.55731 -6.75329 -3.79927
lowerback 4.77473 0.672903 2.43083
upperback -1.94624 1.18105 2.73805
thorax -4.70539 0.555309 1.36817
lowerneck -15.8848 -8.83417 -13.3709
upperneck 24.8814 -11.2775 8.47985
head 12.1023 -5.36129 3.60015
rclavicle -3.97569e-015 -2.34566e-014
rhumerus -25.7965 17.3547 -94.9312
rradius 92.7189
rwrist -83.9378
rhand -18.8136 -11.4213
rfingers 7.12502
rthumb 7.48508 -41.2689
lclavicle -3.97569e-015 -2.34566e-014
lhumerus -24.4961 -8.18819 92.3852
lradius 76.6495
lwrist 27.8535
lhand -0.440907 12.2686
lfingers 7.12502
lthumb 25.168 40.6294
rfemur -13.9893 3.48802 22.3311
rtibia 29.736
rfoot -18.2845 -14.093
rtoes 4.55401
lfemur -10.9919 4.17614 -15.1112
ltibia 24.9962
lfoot -11.4369 10.6417
ltoes -2.61335
92
root 1.79369 17.7643 -24.3692 5.56298 -6.49482 -3.80281
lowerback 4.79856 0.648722 2.46536
upperback -1.95847 1.15238 2.73117
thorax -4.73072 0.539752 1.34397
lowerneck -16.039 -8.81255 -13.334
upperneck 24.9613 -11.2435 8.4866
head 12.1578 -5.33697 3.59911
rclavicle -1.70458e-014 -8.74653e-015
rhumerus -25.5929 15.6799 -94.1814
rradius 92.504
rwrist -85.9137
rhand -18.647 -12.2873
rfingers 7.12502
rthumb 7.64584 -42.1291
lclavicle -1.70458e-014 -8.74653e-015
lhumerus -24.4982 -8.05145 92.2072
lradius 76.0479
lwrist 27.6802
lhand -1.13144 12.4257
lfingers 7.12502
lthumb 24.5062 40.8777
rfemur -13.9359 3.39014 22.2946
rtibia 29.6662
rfoot -18.262 -14.246
rtoes 4.46411
lfemur -11.0611 4.08392 -15.1536
ltibia 25.0126
lfoot -11.4479 10.4868
ltoes -2.58063
93
root 1.81008 17.7664 -24.3664 5.58548 -6.18338 -3.80347
lowerback 4.81751 0.611005 2.50392
upperback -1.98247 1.10611 2.72286
thorax -4.7654 0.515226 1.31768
lowerneck -16.2016 -8.79958 -13.3064
upperneck 25.0442 -11.2224 8.50587
head 12.2196 -5.3175 3.60181
rclavicle -6.18717e-015 4.77083e-015
rhumerus -25.449 13.8881 -93.3683
rradius 92.212
rwrist -87.5743
rhand -17.8559 -13.0401
rfingers 7.12502
rthumb 8.40943 -42.8527
lclavicle -6.18717e-015 4.77083e-015
lhumerus -24.5402 -7.85562 92.0212
lradius 75.4292
lwrist 27.0478
lhand -1.62215 12.3758
lfingers 7.12502
lthumb 24.0358 40.8907
rfemur -13.8949 3.27751 22.2577
rtibia 29.5917
rfoot -18.2401 -14.4332
rtoes 4.37777
lfemur -11.155 3.93872 -15.1987
ltibia 25.0239
lfoot -11.4539 10.3314
ltoes -2.51048
94
root 1.82679 17.7689 -24.3631 5.61918 -5.82685 -3.79678
lowerback 4.80224 0.565869 2.54848
upperback -1.99087 1.04776 2.70482
thorax -4.76407 0.484651 1.27927
lowerneck -16.3651 -8.80239 -13.2888
upperneck 25.0917 -11.228 8.5584
head 12.2742 -5.30668 3.61356
rclavicle -5.19325e-015 -7.55382e-015
rhumerus -25.34 12.0403 -92.4985
rradius 91.9142
rwrist -88.8041
rhand -16.6471 -13.7112
rfingers 7.12502
rthumb 9.57584 -43.4736
lclavicle -5.19325e-015 -7.55382e-015
lhumerus -24.577 -7.63166 91.8172
lradius 74.7924
lwrist 25.9907
lhand -2.00783 12.0716
lfingers 7.12502
lthumb 23.6659 40.6348
rfemur -13.8614 3.14721 22.2149
rtibia 29.5148
rfoot -18.2189 -14.647
rtoes 4.29679
lfemur -11.2651 3.7458 -15.2514
ltibia 25.0295
lfoot -11.4519 10.1795
ltoes -2.44883
95
root 1.84396 17.7716 -24.3591 5.66804 -5.43015 -3.78699
lowerback 4.76503 0.515996 2.59971
upperback -1.9915 0.98203 2.68277
thorax -4.74205 0.450326 1.23375
lowerneck -16.5304 -8.82438 -13.2951
upperneck 25.1116 -11.2612 8.64261
head 12.3259 -5.3064 3.63582
rclavicle 6.95746e-016 1.94809e-014
rhumerus -25.2793 10.1991 -91.5819
rradius 91.674
rwrist -89.5241
rhand -15.2891 -14.2033
rfingers 7.12502
rthumb 10.8859 -43.9011
lclavicle 6.95746e-016 1.94809e-014
lhumerus -24.6212 -7.38592 91.6063
lradius 74.1574
lwrist 24.6084
lhand -2.30336 11.6225
lfingers 7.12502
lthumb 23.3824 40.2221
rfemur -13.84 2.99385 22.1702
rtibia 29.4391
rfoot -18.2022 -14.8751
rtoes 4.22705
lfemur -11.3958 3.51943 -15.3066
ltibia 25.0321
lfoot -11.4466 10.0205
ltoes -2.38716
96
root 1.8608 17.7742 -24.3547 5.71739 -5.05546 -3.77975
lowerback 4.71789 0.480467 2.64246
upperback -1.97701 0.933852 2.66166
thorax -4.69896 0.425195 1.19238
lowerneck -16.6841 -8.86032 -13.3277
upperneck 25.0941 -11.3133 8.75381
head 12.367 -5.3139 3.66905
rclavicle -1.49089e-014 -1.70955e-014
rhumerus -25.2551 8.39095 -90.6242
rradius 91.5331
rwrist -89.743
rhand -14.053 -14.5687
rfingers 7.12502
rthumb 12.078 -44.2001
lclavicle -1.49089e-014 -1.70955e-014
lhumerus -24.6719 -7.11563 91.3872
lradius 73.5434
lwrist 23.0442
lhand -2.56701 11.0591
lfingers 7.12502
lthumb 23.1295 39.6907
rfemur -13.8214 2.85299 22.1275
rtibia 29.3685
rfoot -18.1861 -15.095
rtoes 4.16346
lfemur -11.5193 3.31107 -15.3582
ltibia 25.0332
lfoot -11.4463 9.86074
ltoes -2.31719
97
root 1.87697 17.7763 -24.3503 5.76103 -4.73145 -3.7749
lowerback 4.67179 0.468001 2.66193
upperback -1.94746 0.914686 2.64776
thorax -4.64134 0.415457 1.16893
lowerneck -16.8207 -8.90768 -13.3907
upperneck 25.0397 -11.3772 8.88315
head 12.3952 -5.32771 3.71197
rclavicle -1.70458e-014 1.59028e-014
rhumerus -25.2697 6.63387 -89.6125
rradius 91.5281
rwrist -89.5638
rhand -13.1317 -14.8261
rfingers 7.12502
rthumb 12.9663 -44.4032
lclavicle -1.70458e-014 1.59028e-014
lhumerus -24.7408 -6.81655 91.1668
lradius 72.9801
lwrist 21.4554
lhand -2.80522 10.4847
lfingers 7.12502
lthumb 22.9009 39.1448
rfemur -13.8011 2.74465 22.0863
rtibia 29.3053
rfoot -18.1702 -15.2994
rtoes 4.10441
lfemur -11.6249 3.14115 -15.4065
ltibia 25.0361
lfoot -11.457 9.70624
ltoes -2.23478
